<?xml version="1.0" encoding="UTF-8" standalone="no" ?>
<!DOCTYPE svg PUBLIC "-//W3C//DTD SVG 1.1//EN" "http://www.w3.org/Graphics/SVG/1.1/DTD/svg11.dtd">
<svg xmlns="http://www.w3.org/2000/svg" xmlns:xlink="http://www.w3.org/1999/xlink" version="1.1" width="1280" height="1024" viewBox="350 200 580 600" xml:space="preserve">
<desc>Created with Fabric.js 5.3.0</desc>
<defs>
</defs>
<g transform="matrix(1 0 0 1 640 512)" id="background-logo"  >
<rect style="stroke: none; stroke-width: 0; stroke-dasharray: none; stroke-linecap: butt; stroke-dashoffset: 0; stroke-linejoin: miter; stroke-miterlimit: 4; fill: rgb(255,255,255); fill-opacity: 0; fill-rule: nonzero; opacity: 1;"  paint-order="stroke"  x="-640" y="-512" rx="0" ry="0" width="1280" height="1024" />
</g>
<g transform="matrix(1.9211538461538462 0 0 1.9211538461538462 640 393.74265191954044)" id="logo-logo"  >
<g style=""  paint-order="stroke"   >
		<g transform="matrix(0.2150119945935179 0 0 -0.2150119945935179 -0.001127291128568686 -13.325708431090419)"  >
<path style="stroke: none; stroke-width: 1; stroke-dasharray: none; stroke-linecap: butt; stroke-dashoffset: 0; stroke-linejoin: miter; stroke-miterlimit: 4; fill: rgb(128,204,40); fill-rule: nonzero; opacity: 1;"  paint-order="stroke"  transform=" translate(-1595.4117447836525, -1487.9488267938705)" d="M 1960.99 1700.83 C 1848.3 1677.61 1741.88 1566.76 1741.88 1566.76 C 1732.0200000000002 1737.09 1594.48 1827.65 1594.48 1827.65 C 1594.48 1827.65 1455.3400000000001 1741.8600000000001 1447.07 1566.7600000000002 C 1447.07 1566.7600000000002 1342.87 1662.3400000000001 1230.19 1685.5700000000002 C 1230.19 1685.5700000000002 1154.19 1090.0700000000002 1594.47 1152.8900000000003 C 1594.47 1152.8900000000003 1594.48 1152.8900000000003 1594.49 1152.8900000000003 C 2034.77 1090.0700000000004 1960.99 1700.8300000000004 1960.99 1700.8300000000004" stroke-linecap="round" />
</g>
		<g transform="matrix(0.2150119945935179 0 0 -0.2150119945935179 0 0)"  >
<path style="stroke: none; stroke-width: 1; stroke-dasharray: none; stroke-linecap: butt; stroke-dashoffset: 0; stroke-linejoin: miter; stroke-miterlimit: 4; fill: rgb(28,100,52); fill-rule: nonzero; opacity: 1;"  paint-order="stroke"  transform=" translate(-1595.4170848242431, -1425.9705000000001)" d="M 1820.64 1270.51 C 1779.64 1224.26 1725.63 1201.78 1655.5 1201.78 L 1655.48 1201.78 C 1654.67 1201.78 1653.84 1201.82 1653.03 1201.83 L 1653.03 1335.56 L 1537.79 1335.56 L 1537.79 1201.78 C 1535.8999999999999 1201.75 1533.97 1201.67 1532.1 1201.67 C 1461.24 1201.67 1406.98 1224.1200000000001 1366.25 1270.29 C 1285.09 1362.28 1276.59 1523.54 1278.98 1613.48 C 1351.27 1581.34 1410.26 1528.03 1410.96 1527.39 L 1495.06 1450.24 L 1500.44 1564.24 C 1505.1000000000001 1662.95 1559.0800000000002 1727.68 1593.72 1759.38 C 1628.52 1726.5400000000002 1682.95 1660.3400000000001 1688.54 1563.67 L 1695.6499999999999 1441.94 L 1780.37 1529.71 C 1781.12 1530.49 1840.6999999999998 1591.64 1912.2399999999998 1627.1100000000001 C 1914.3599999999997 1523.2600000000002 1899.7599999999998 1359.7600000000002 1820.6399999999999 1270.5100000000002 z M 2014.0300000000002 1707.24 L 2007.0600000000002 1764.88 L 1950.2100000000003 1753.16 C 1884.4700000000003 1739.6100000000001 1822.1700000000003 1701.64 1776.5800000000004 1667.3600000000001 C 1732.7700000000004 1799.1100000000001 1629.2000000000003 1868.7600000000002 1623.8600000000004 1872.2700000000002 L 1595.4200000000003 1891.0000000000002 L 1566.4300000000003 1873.1300000000003 C 1560.9000000000003 1869.7100000000003 1451.8400000000004 1800.9000000000003 1409.6900000000003 1662.4400000000003 C 1365.2000000000003 1692.0000000000002 1304.8900000000003 1724.7200000000003 1240.9700000000003 1737.8900000000003 L 1184.4900000000002 1749.5300000000004 L 1177.1900000000003 1692.3300000000004 C 1175.5100000000002 1679.1700000000003 1137.7700000000002 1368.0800000000004 1285.9100000000003 1199.8300000000004 C 1347.2700000000002 1130.1500000000003 1430.1000000000004 1094.8200000000004 1532.1000000000004 1094.8200000000004 C 1533.9800000000005 1094.8200000000004 1535.9000000000003 1094.8900000000003 1537.7900000000004 1094.9200000000003 L 1537.7900000000004 960.941 L 1653.0300000000004 960.941 L 1653.0300000000004 1094.97 C 1653.8400000000004 1094.96 1654.6700000000005 1094.93 1655.4700000000005 1094.93 C 1655.4800000000005 1094.93 1655.4900000000005 1094.93 1655.5000000000005 1094.93 C 1756.5500000000004 1094.93 1839.0100000000004 1130.15 1900.6000000000004 1199.6200000000001 C 2052.6500000000005 1371.15 2015.6800000000003 1693.6000000000001 2014.0300000000004 1707.2400000000002" stroke-linecap="round" />
</g>
</g>
</g>
<g transform="matrix(1.9211538461538462 0 0 1.9211538461538462 641.5849519230769 675.6274049631201)" id="text-logo"  >
<g style=""  paint-order="stroke"   >
		<g transform="matrix(1 0 0 1 0 0)" id="text-logo-path-0"  >
<path style="stroke: none; stroke-width: 0.5856082437106328; stroke-dasharray: none; stroke-linecap: butt; stroke-dashoffset: 0; stroke-linejoin: miter; stroke-miterlimit: 4; fill: rgb(28,100,52); fill-rule: nonzero; opacity: 1;"  paint-order="stroke"  transform=" translate(-91.025, 19.25)" d="M 14.08 -38.5 L 2.2 -38.5 L 2.2 0 L 14.08 0 C 22.88 0 27.5 -5.83 27.5 -19.36 C 27.5 -32.67 22.88 -38.5 14.08 -38.5 Z M 14.03 -11 L 13.2 -11 L 13.2 -27.5 L 14.03 -27.5 C 15.79 -27.5 16.5 -24.75 16.5 -19.3 C 16.5 -13.75 15.84 -11 14.03 -11 Z M 53.68 0.55 C 62.48 0.55 66.28 -5.45 66.28 -19.36 C 66.28 -33 62.48 -39.05 53.68 -39.05 C 44.72 -39.05 40.92 -33.05 40.92 -19.36 C 40.92 -5.45 44.72 0.55 53.68 0.55 Z M 51.92 -19.3 C 51.92 -24.75 52.36 -28.05 53.63 -28.05 C 54.84 -28.05 55.27 -24.75 55.27 -19.3 C 55.27 -13.75 54.84 -10.45 53.63 -10.45 C 52.36 -10.45 51.92 -13.75 51.92 -19.3 Z M 89.49 -12.87 C 89.49 -11.77 88.94 -11 86.79 -11 L 79.92 -11 L 79.92 0 L 91.03 0 C 98.45 0 102.25 -3.85 102.25 -9.85 C 102.25 -18.48 93.23 -21.84 93.23 -25.52 C 93.23 -26.73 93.78 -27.5 95.92 -27.5 L 101.7 -27.5 L 101.7 -38.5 L 91.3 -38.5 C 83.71 -38.5 79.92 -34.98 79.92 -28.6 C 79.92 -20.35 89.49 -16.39 89.49 -12.87 Z M 138.55 -38.5 L 116.66 -38.5 L 116.66 0 L 138.55 0 L 138.55 -11 L 127.66 -11 L 127.66 -13.75 L 136.9 -13.75 L 136.9 -24.75 L 127.66 -24.75 L 127.66 -27.5 L 138.55 -27.5 Z M 165.38 -38.5 L 153.45 -38.5 L 153.45 0 L 164.45 0 L 164.45 -14.3 L 165.06 -14.3 L 169.4 0 L 179.85 0 L 174.68 -17 C 177.16 -19.03 178.47 -22.22 178.47 -26.46 C 178.47 -34.27 173.97 -38.5 165.38 -38.5 Z M 165.28 -22 L 164.45 -22 L 164.45 -27.5 L 165.28 -27.5 C 166.98 -27.5 167.75 -26.62 167.75 -24.75 C 167.75 -22.88 166.98 -22 165.28 -22 Z" stroke-linecap="round" />
</g>
</g>
</g>
<g transform="matrix(1 0 0 1 324.2183810527895 411.9307500893537)" id="tagline-92494c4f-9f1f-4028-815e-9307b9687373-logo"  >
<g style=""  paint-order="stroke"   >
		<g transform="matrix(1 0 0 1 0 0)" id="tagline-92494c4f-9f1f-4028-815e-9307b9687373-logo-path-0"  >
<path style="stroke: none; stroke-width: 0; stroke-dasharray: none; stroke-linecap: butt; stroke-dashoffset: 0; stroke-linejoin: miter; stroke-miterlimit: 4; fill: rgb(28,100,52); fill-rule: nonzero; opacity: 1;"  paint-order="stroke"  transform=" translate(0, 0)" d="" stroke-linecap="round" />
</g>
</g>
</g>
</svg>