<svg width="80" height="35" viewBox="0 0 80 35" fill="none" xmlns="http://www.w3.org/2000/svg">
<mask id="path-1-outside-1_1_3" maskUnits="userSpaceOnUse" x="0" y="0" width="80" height="35" fill="black">
<rect fill="white" width="80" height="35"/>
<path d="M2.35869 34C1.83069 34 1.59069 33.76 1.59069 33.232V2.368C1.59069 1.984 1.92669 1.648 2.35869 1.648H7.11069C12.2467 1.648 14.5987 4.624 14.5987 10.384V25.264C14.5987 31.024 12.2467 34 7.11069 34H2.35869ZM3.07869 3.136V32.512H7.11069C11.2867 32.512 13.0627 30.256 13.0627 25.264V10.384C13.0627 5.392 11.2867 3.136 7.11069 3.136H3.07869ZM17.7022 10.192C17.7022 4.672 20.0062 1.648 24.5662 1.648C29.1742 1.648 31.4782 4.624 31.4782 10.192V25.408C31.4782 29.008 30.5662 31.072 29.2222 32.368C27.8782 33.664 26.1502 34 24.5662 34C23.0302 34 21.3022 33.664 19.9582 32.368C18.6142 31.072 17.7022 29.008 17.7022 25.408V10.192ZM19.1902 25.408C19.1902 30.256 20.9662 32.512 24.5662 32.512C28.0702 32.512 29.9422 30.4 29.9422 25.408V10.192C29.9422 5.248 28.1662 3.136 24.5662 3.136C20.9182 3.136 19.1902 5.392 19.1902 10.192V25.408ZM41.1577 18.928L40.3417 18.544C39.3817 18.16 37.8457 17.488 36.5497 16.144C35.2057 14.848 34.1017 13.024 34.1017 10.192C34.1017 5.344 36.5497 1.6 41.0137 1.6C45.6217 1.6 47.9737 4.576 47.9737 10.192C47.9737 10.576 47.6377 10.96 47.2057 10.96C46.7737 10.96 46.4377 10.576 46.4377 10.192C46.4377 5.344 44.6617 3.088 41.0137 3.088C37.6057 3.088 35.5897 6.016 35.5897 10.192C35.5897 12.496 36.4537 14.032 37.6057 15.088C38.7097 16.144 40.0057 16.768 40.9657 17.152L41.7337 17.488C42.5497 17.872 44.1337 18.496 45.4777 19.744C46.8217 20.992 47.9737 22.816 47.9737 25.648C47.9737 28 47.3497 30.016 46.2457 31.504C44.9977 33.136 43.2697 33.952 41.0137 33.952C36.4057 33.952 34.1017 30.976 34.1017 25.408C34.1017 24.88 34.3417 24.64 34.8697 24.64C35.2537 24.64 35.5897 24.976 35.5897 25.408C35.5897 28.528 36.4057 30.304 37.4617 31.264C38.5177 32.272 39.8617 32.464 41.0137 32.464C44.4697 32.464 46.4377 29.92 46.4377 25.648C46.4377 23.344 45.5257 21.808 44.4217 20.8C43.8457 20.32 43.2697 19.936 42.6457 19.648L41.1577 18.928ZM51.8407 18.544V32.512H61.2007C61.6327 32.512 61.9687 32.848 61.9687 33.232C61.9687 33.76 61.7287 34 61.2007 34H51.1207C50.5927 34 50.3527 33.76 50.3527 33.232V2.368C50.3527 1.984 50.6887 1.648 51.1207 1.648H61.2007C61.6327 1.648 61.9687 1.984 61.9687 2.368C61.9687 2.896 61.7287 3.136 61.2007 3.136H51.8407V17.056H61.2007C61.7287 17.056 61.9687 17.296 61.9687 17.824C61.9687 18.208 61.6327 18.544 61.2007 18.544H51.8407ZM78.2658 33.184C78.2658 33.712 78.0258 33.952 77.4978 33.952C77.1138 33.952 76.7778 33.616 76.7778 33.184V24.976C76.7778 20.992 74.5698 18.784 70.7298 18.784H66.4098V33.184C66.4098 33.712 66.1698 33.952 65.6418 33.952C65.2578 33.952 64.9218 33.616 64.9218 33.184V2.32C64.9218 1.936 65.2578 1.6 65.6418 1.6H70.7298C75.8658 1.6 78.2178 4.24 78.2178 10.144C78.2178 13.072 77.6418 15.232 76.4418 16.624C75.9138 17.248 75.2898 17.728 74.4738 18.064C75.0978 18.4 75.6258 18.736 76.1538 19.264C77.5458 20.608 78.2658 22.528 78.2658 24.976V33.184ZM66.4098 3.088V17.296H70.7298C74.9058 17.296 76.6818 15.328 76.6818 10.144C76.6818 5.152 74.9538 3.088 70.7298 3.088H66.4098Z"/>
</mask>
<path d="M2.35869 34C1.83069 34 1.59069 33.76 1.59069 33.232V2.368C1.59069 1.984 1.92669 1.648 2.35869 1.648H7.11069C12.2467 1.648 14.5987 4.624 14.5987 10.384V25.264C14.5987 31.024 12.2467 34 7.11069 34H2.35869ZM3.07869 3.136V32.512H7.11069C11.2867 32.512 13.0627 30.256 13.0627 25.264V10.384C13.0627 5.392 11.2867 3.136 7.11069 3.136H3.07869ZM17.7022 10.192C17.7022 4.672 20.0062 1.648 24.5662 1.648C29.1742 1.648 31.4782 4.624 31.4782 10.192V25.408C31.4782 29.008 30.5662 31.072 29.2222 32.368C27.8782 33.664 26.1502 34 24.5662 34C23.0302 34 21.3022 33.664 19.9582 32.368C18.6142 31.072 17.7022 29.008 17.7022 25.408V10.192ZM19.1902 25.408C19.1902 30.256 20.9662 32.512 24.5662 32.512C28.0702 32.512 29.9422 30.4 29.9422 25.408V10.192C29.9422 5.248 28.1662 3.136 24.5662 3.136C20.9182 3.136 19.1902 5.392 19.1902 10.192V25.408ZM41.1577 18.928L40.3417 18.544C39.3817 18.16 37.8457 17.488 36.5497 16.144C35.2057 14.848 34.1017 13.024 34.1017 10.192C34.1017 5.344 36.5497 1.6 41.0137 1.6C45.6217 1.6 47.9737 4.576 47.9737 10.192C47.9737 10.576 47.6377 10.96 47.2057 10.96C46.7737 10.96 46.4377 10.576 46.4377 10.192C46.4377 5.344 44.6617 3.088 41.0137 3.088C37.6057 3.088 35.5897 6.016 35.5897 10.192C35.5897 12.496 36.4537 14.032 37.6057 15.088C38.7097 16.144 40.0057 16.768 40.9657 17.152L41.7337 17.488C42.5497 17.872 44.1337 18.496 45.4777 19.744C46.8217 20.992 47.9737 22.816 47.9737 25.648C47.9737 28 47.3497 30.016 46.2457 31.504C44.9977 33.136 43.2697 33.952 41.0137 33.952C36.4057 33.952 34.1017 30.976 34.1017 25.408C34.1017 24.88 34.3417 24.64 34.8697 24.64C35.2537 24.64 35.5897 24.976 35.5897 25.408C35.5897 28.528 36.4057 30.304 37.4617 31.264C38.5177 32.272 39.8617 32.464 41.0137 32.464C44.4697 32.464 46.4377 29.92 46.4377 25.648C46.4377 23.344 45.5257 21.808 44.4217 20.8C43.8457 20.32 43.2697 19.936 42.6457 19.648L41.1577 18.928ZM51.8407 18.544V32.512H61.2007C61.6327 32.512 61.9687 32.848 61.9687 33.232C61.9687 33.76 61.7287 34 61.2007 34H51.1207C50.5927 34 50.3527 33.76 50.3527 33.232V2.368C50.3527 1.984 50.6887 1.648 51.1207 1.648H61.2007C61.6327 1.648 61.9687 1.984 61.9687 2.368C61.9687 2.896 61.7287 3.136 61.2007 3.136H51.8407V17.056H61.2007C61.7287 17.056 61.9687 17.296 61.9687 17.824C61.9687 18.208 61.6327 18.544 61.2007 18.544H51.8407ZM78.2658 33.184C78.2658 33.712 78.0258 33.952 77.4978 33.952C77.1138 33.952 76.7778 33.616 76.7778 33.184V24.976C76.7778 20.992 74.5698 18.784 70.7298 18.784H66.4098V33.184C66.4098 33.712 66.1698 33.952 65.6418 33.952C65.2578 33.952 64.9218 33.616 64.9218 33.184V2.32C64.9218 1.936 65.2578 1.6 65.6418 1.6H70.7298C75.8658 1.6 78.2178 4.24 78.2178 10.144C78.2178 13.072 77.6418 15.232 76.4418 16.624C75.9138 17.248 75.2898 17.728 74.4738 18.064C75.0978 18.4 75.6258 18.736 76.1538 19.264C77.5458 20.608 78.2658 22.528 78.2658 24.976V33.184ZM66.4098 3.088V17.296H70.7298C74.9058 17.296 76.6818 15.328 76.6818 10.144C76.6818 5.152 74.9538 3.088 70.7298 3.088H66.4098Z" fill="#10B981"/>
<path d="M3.07869 3.136V2.136H2.07869V3.136H3.07869ZM3.07869 32.512H2.07869V33.512H3.07869V32.512ZM2.35869 34V33C2.22486 33 2.34454 32.9676 2.48379 33.1069C2.62305 33.2461 2.59069 33.3658 2.59069 33.232H1.59069H0.590687C0.590687 33.6262 0.678328 34.1299 1.06958 34.5211C1.46083 34.9124 1.96451 35 2.35869 35V34ZM1.59069 33.232H2.59069V2.368H1.59069H0.590687V33.232H1.59069ZM1.59069 2.368H2.59069C2.59069 2.47288 2.54513 2.54721 2.50391 2.58664C2.46052 2.62814 2.40666 2.648 2.35869 2.648V1.648V0.647999C1.41676 0.647999 0.590687 1.39028 0.590687 2.368H1.59069ZM2.35869 1.648V2.648H7.11069V1.648V0.647999H2.35869V1.648ZM7.11069 1.648V2.648C9.48209 2.648 11.0305 3.32747 12.015 4.49926C13.0288 5.70587 13.5987 7.61359 13.5987 10.384H14.5987H15.5987C15.5987 7.39441 14.9926 4.93413 13.5463 3.21273C12.0708 1.45653 9.87529 0.647999 7.11069 0.647999V1.648ZM14.5987 10.384H13.5987V25.264H14.5987H15.5987V10.384H14.5987ZM14.5987 25.264H13.5987C13.5987 28.0344 13.0288 29.9421 12.015 31.1487C11.0305 32.3205 9.48209 33 7.11069 33V34V35C9.87529 35 12.0708 34.1915 13.5463 32.4353C14.9926 30.7139 15.5987 28.2536 15.5987 25.264H14.5987ZM7.11069 34V33H2.35869V34V35H7.11069V34ZM3.07869 3.136H2.07869V32.512H3.07869H4.07869V3.136H3.07869ZM3.07869 32.512V33.512H7.11069V32.512V31.512H3.07869V32.512ZM7.11069 32.512V33.512C9.37632 33.512 11.2065 32.8937 12.4286 31.3909C13.6115 29.9361 14.0627 27.8414 14.0627 25.264H13.0627H12.0627C12.0627 27.6786 11.6259 29.2079 10.8768 30.1291C10.1668 31.0023 9.02105 31.512 7.11069 31.512V32.512ZM13.0627 25.264H14.0627V10.384H13.0627H12.0627V25.264H13.0627ZM13.0627 10.384H14.0627C14.0627 7.80663 13.6115 5.71192 12.4286 4.25711C11.2065 2.75426 9.37632 2.136 7.11069 2.136V3.136V4.136C9.02106 4.136 10.1668 4.64574 10.8768 5.51889C11.6259 6.44008 12.0627 7.96937 12.0627 10.384H13.0627ZM7.11069 3.136V2.136H3.07869V3.136V4.136H7.11069V3.136ZM29.2222 32.368L28.5281 31.6482L28.5281 31.6482L29.2222 32.368ZM19.9582 32.368L20.6523 31.6482L20.6523 31.6482L19.9582 32.368ZM17.7022 10.192H18.7022C18.7022 7.54816 19.2574 5.67043 20.2079 4.47112C21.1264 3.31223 22.5249 2.648 24.5662 2.648V1.648V0.647999C22.0475 0.647999 20.014 1.49576 18.6405 3.22888C17.299 4.92156 16.7022 7.31584 16.7022 10.192H17.7022ZM24.5662 1.648V2.648C26.6398 2.648 28.0487 3.30588 28.9693 4.45669C29.9221 5.64767 30.4782 7.52205 30.4782 10.192H31.4782H32.4782C32.4782 7.29395 31.8823 4.89632 30.5311 3.2073C29.1477 1.47812 27.1005 0.647999 24.5662 0.647999V1.648ZM31.4782 10.192H30.4782V25.408H31.4782H32.4782V10.192H31.4782ZM31.4782 25.408H30.4782C30.4782 28.8364 29.6148 30.6002 28.5281 31.6482L29.2222 32.368L29.9163 33.0878C31.5176 31.5438 32.4782 29.1796 32.4782 25.408H31.4782ZM29.2222 32.368L28.5281 31.6482C27.4487 32.689 26.0255 33 24.5662 33V34V35C26.2749 35 28.3077 34.639 29.9163 33.0878L29.2222 32.368ZM24.5662 34V33C23.1586 33 21.7334 32.6906 20.6523 31.6482L19.9582 32.368L19.2641 33.0878C20.871 34.6374 22.9018 35 24.5662 35V34ZM19.9582 32.368L20.6523 31.6482C19.5656 30.6002 18.7022 28.8364 18.7022 25.408H17.7022H16.7022C16.7022 29.1796 17.6628 31.5438 19.2641 33.0878L19.9582 32.368ZM17.7022 25.408H18.7022V10.192H17.7022H16.7022V25.408H17.7022ZM19.1902 25.408H18.1902C18.1902 27.9224 18.645 29.9604 19.7336 31.3851C20.8642 32.8647 22.5419 33.512 24.5662 33.512V32.512V31.512C22.9905 31.512 21.9802 31.0313 21.3228 30.1709C20.6234 29.2556 20.1902 27.7416 20.1902 25.408H19.1902ZM24.5662 32.512V33.512C26.5297 33.512 28.2067 32.9093 29.3542 31.4502C30.4623 30.0412 30.9422 27.9976 30.9422 25.408H29.9422H28.9422C28.9422 27.8104 28.4861 29.3188 27.7822 30.2138C27.1177 31.0587 26.1067 31.512 24.5662 31.512V32.512ZM29.9422 25.408H30.9422V10.192H29.9422H28.9422V25.408H29.9422ZM29.9422 10.192H30.9422C30.9422 7.6349 30.4895 5.6009 29.3926 4.19492C28.2532 2.73428 26.5701 2.136 24.5662 2.136V3.136V4.136C26.1622 4.136 27.1672 4.59372 27.8157 5.42508C28.5069 6.3111 28.9422 7.8051 28.9422 10.192H29.9422ZM24.5662 3.136V2.136C22.5219 2.136 20.8417 2.78081 19.7151 4.25746C18.6317 5.67764 18.1902 7.70499 18.1902 10.192H19.1902H20.1902C20.1902 7.879 20.6127 6.37836 21.3052 5.47054C21.9547 4.61919 22.9625 4.136 24.5662 4.136V3.136ZM19.1902 10.192H18.1902V25.408H19.1902H20.1902V10.192H19.1902ZM41.1577 18.928L41.5933 18.0278L41.5835 18.0232L41.1577 18.928ZM40.3417 18.544L40.7675 17.6392L40.7406 17.6265L40.7131 17.6155L40.3417 18.544ZM36.5497 16.144L37.2695 15.4499L37.2569 15.4368L37.2438 15.4242L36.5497 16.144ZM37.6057 15.088L38.2969 14.3654L38.2892 14.358L38.2814 14.3508L37.6057 15.088ZM40.9657 17.152L41.3665 16.2358L41.3519 16.2294L41.3371 16.2235L40.9657 17.152ZM41.7337 17.488L42.1595 16.5832L42.1471 16.5773L42.1345 16.5718L41.7337 17.488ZM45.4777 19.744L46.1581 19.0112L46.1581 19.0112L45.4777 19.744ZM46.2457 31.504L47.04 32.1115L47.0445 32.1057L47.0488 32.0998L46.2457 31.504ZM37.4617 31.264L38.1522 30.5406L38.1434 30.5322L38.1344 30.5241L37.4617 31.264ZM44.4217 20.8L45.096 20.0615L45.0793 20.0463L45.0619 20.0318L44.4217 20.8ZM42.6457 19.648L42.2101 20.5482L42.2183 20.5521L42.2266 20.556L42.6457 19.648ZM41.1577 18.928L41.5835 18.0232L40.7675 17.6392L40.3417 18.544L39.9159 19.4488L40.7319 19.8328L41.1577 18.928ZM40.3417 18.544L40.7131 17.6155C39.7831 17.2435 38.4125 16.6351 37.2695 15.4499L36.5497 16.144L35.8298 16.8381C37.2789 18.3409 38.9802 19.0765 39.9703 19.4725L40.3417 18.544ZM36.5497 16.144L37.2438 15.4242C36.0666 14.2889 35.1017 12.715 35.1017 10.192H34.1017H33.1017C33.1017 13.333 34.3448 15.4071 35.8556 16.8638L36.5497 16.144ZM34.1017 10.192H35.1017C35.1017 7.92273 35.6761 6.00595 36.6803 4.68245C37.6622 3.38841 39.096 2.6 41.0137 2.6V1.6V0.599999C38.4673 0.599999 36.4452 1.68359 35.087 3.47355C33.7513 5.23405 33.1017 7.61327 33.1017 10.192H34.1017ZM41.0137 1.6V2.6C43.0877 2.6 44.5099 3.25826 45.4427 4.41706C46.4066 5.61446 46.9737 7.50045 46.9737 10.192H47.9737H48.9737C48.9737 7.26754 48.3648 4.85754 47.0007 3.16294C45.6055 1.42974 43.5476 0.599999 41.0137 0.599999V1.6ZM47.9737 10.192H46.9737C46.9737 10.0984 47.0095 10.0492 47.0297 10.0281C47.0557 10.001 47.1154 9.96 47.2057 9.96V10.96V11.96C48.2297 11.96 48.9737 11.0877 48.9737 10.192H47.9737ZM47.2057 10.96V9.96C47.296 9.96 47.3557 10.001 47.3817 10.0281C47.4019 10.0492 47.4377 10.0984 47.4377 10.192H46.4377H45.4377C45.4377 11.0877 46.1817 11.96 47.2057 11.96V10.96ZM46.4377 10.192H47.4377C47.4377 7.67789 46.9831 5.63807 45.8863 4.21229C44.7479 2.73236 43.0576 2.088 41.0137 2.088V3.088V4.088C42.6178 4.088 43.6395 4.57164 44.3011 5.43171C45.0043 6.34593 45.4377 7.8581 45.4377 10.192H46.4377ZM41.0137 3.088V2.088C38.9871 2.088 37.3355 2.97481 36.2205 4.47831C35.1276 5.95193 34.5897 7.95697 34.5897 10.192H35.5897H36.5897C36.5897 8.25103 37.0598 6.70407 37.8269 5.66969C38.5719 4.66518 39.6323 4.088 41.0137 4.088V3.088ZM35.5897 10.192H34.5897C34.5897 12.7858 35.5784 14.5863 36.93 15.8252L37.6057 15.088L38.2814 14.3508C37.3289 13.4777 36.5897 12.2062 36.5897 10.192H35.5897ZM37.6057 15.088L36.9145 15.8106C38.1524 16.9947 39.5839 17.6763 40.5943 18.0805L40.9657 17.152L41.3371 16.2235C40.4275 15.8597 39.267 15.2933 38.2969 14.3654L37.6057 15.088ZM40.9657 17.152L40.5649 18.0682L41.3329 18.4042L41.7337 17.488L42.1345 16.5718L41.3665 16.2358L40.9657 17.152ZM41.7337 17.488L41.3079 18.3928C42.1889 18.8074 43.5952 19.3606 44.7972 20.4768L45.4777 19.744L46.1581 19.0112C44.6722 17.6314 42.9105 16.9366 42.1595 16.5832L41.7337 17.488ZM45.4777 19.744L44.7972 20.4768C45.9703 21.5661 46.9737 23.136 46.9737 25.648H47.9737H48.9737C48.9737 22.496 47.673 20.4179 46.1581 19.0112L45.4777 19.744ZM47.9737 25.648H46.9737C46.9737 27.8276 46.3957 29.6236 45.4426 30.9082L46.2457 31.504L47.0488 32.0998C48.3037 30.4084 48.9737 28.1724 48.9737 25.648H47.9737ZM46.2457 31.504L45.4513 30.8965C44.4106 32.2575 42.9893 32.952 41.0137 32.952V33.952V34.952C43.5501 34.952 45.5847 34.0145 47.04 32.1115L46.2457 31.504ZM41.0137 33.952V32.952C38.94 32.952 37.5312 32.2941 36.6106 31.1433C35.6578 29.9523 35.1017 28.078 35.1017 25.408H34.1017H33.1017C33.1017 28.306 33.6976 30.7037 35.0488 32.3927C36.4322 34.1219 38.4793 34.952 41.0137 34.952V33.952ZM34.1017 25.408H35.1017C35.1017 25.2742 35.134 25.3939 34.9948 25.5331C34.8555 25.6724 34.7359 25.64 34.8697 25.64V24.64V23.64C34.4755 23.64 33.9718 23.7276 33.5806 24.1189C33.1893 24.5101 33.1017 25.0138 33.1017 25.408H34.1017ZM34.8697 24.64V25.64C34.7648 25.64 34.6905 25.5944 34.651 25.5532C34.6095 25.5098 34.5897 25.456 34.5897 25.408H35.5897H36.5897C36.5897 24.4661 35.8474 23.64 34.8697 23.64V24.64ZM35.5897 25.408H34.5897C34.5897 28.6864 35.448 30.7849 36.789 32.0039L37.4617 31.264L38.1344 30.5241C37.3634 29.8231 36.5897 28.3696 36.5897 25.408H35.5897ZM37.4617 31.264L36.7712 31.9874C38.1071 33.2626 39.7731 33.464 41.0137 33.464V32.464V31.464C39.9502 31.464 38.9282 31.2814 38.1522 30.5406L37.4617 31.264ZM41.0137 32.464V33.464C43.0113 33.464 44.6714 32.7151 45.8065 31.2778C46.9159 29.873 47.4377 27.9213 47.4377 25.648H46.4377H45.4377C45.4377 27.6467 44.9755 29.103 44.2369 30.0382C43.524 30.9409 42.4721 31.464 41.0137 31.464V32.464ZM46.4377 25.648H47.4377C47.4377 23.0421 46.3915 21.2444 45.096 20.0615L44.4217 20.8L43.7474 21.5385C44.6599 22.3716 45.4377 23.6459 45.4377 25.648H46.4377ZM44.4217 20.8L45.0619 20.0318C44.4349 19.5093 43.7855 19.0727 43.0647 18.74L42.6457 19.648L42.2266 20.556C42.7539 20.7993 43.2565 21.1307 43.7815 21.5682L44.4217 20.8ZM42.6457 19.648L43.0812 18.7478L41.5932 18.0278L41.1577 18.928L40.7221 19.8282L42.2101 20.5482L42.6457 19.648ZM51.8407 18.544V17.544H50.8407V18.544H51.8407ZM51.8407 32.512H50.8407V33.512H51.8407V32.512ZM51.8407 3.136V2.136H50.8407V3.136H51.8407ZM51.8407 17.056H50.8407V18.056H51.8407V17.056ZM51.8407 18.544H50.8407V32.512H51.8407H52.8407V18.544H51.8407ZM51.8407 32.512V33.512H61.2007V32.512V31.512H51.8407V32.512ZM61.2007 32.512V33.512C61.1527 33.512 61.0989 33.4921 61.0555 33.4506C61.0142 33.4112 60.9687 33.3369 60.9687 33.232H61.9687H62.9687C62.9687 32.2543 62.1426 31.512 61.2007 31.512V32.512ZM61.9687 33.232H60.9687C60.9687 33.3658 60.9363 33.2461 61.0756 33.1069C61.2148 32.9676 61.3345 33 61.2007 33V34V35C61.5949 35 62.0985 34.9124 62.4898 34.5211C62.881 34.1299 62.9687 33.6262 62.9687 33.232H61.9687ZM61.2007 34V33H51.1207V34V35H61.2007V34ZM51.1207 34V33C50.9869 33 51.1065 32.9676 51.2458 33.1069C51.385 33.2461 51.3527 33.3658 51.3527 33.232H50.3527H49.3527C49.3527 33.6262 49.4403 34.1299 49.8316 34.5211C50.2228 34.9124 50.7265 35 51.1207 35V34ZM50.3527 33.232H51.3527V2.368H50.3527H49.3527V33.232H50.3527ZM50.3527 2.368H51.3527C51.3527 2.47288 51.3071 2.54721 51.2659 2.58664C51.2225 2.62814 51.1687 2.648 51.1207 2.648V1.648V0.647999C50.1788 0.647999 49.3527 1.39028 49.3527 2.368H50.3527ZM51.1207 1.648V2.648H61.2007V1.648V0.647999H51.1207V1.648ZM61.2007 1.648V2.648C61.1527 2.648 61.0989 2.62814 61.0555 2.58664C61.0142 2.54721 60.9687 2.47288 60.9687 2.368H61.9687H62.9687C62.9687 1.39028 62.1426 0.647999 61.2007 0.647999V1.648ZM61.9687 2.368H60.9687C60.9687 2.50183 60.9363 2.38214 61.0756 2.24289C61.2148 2.10364 61.3345 2.136 61.2007 2.136V3.136V4.136C61.5949 4.136 62.0985 4.04836 62.4898 3.65711C62.881 3.26585 62.9687 2.76217 62.9687 2.368H61.9687ZM61.2007 3.136V2.136H51.8407V3.136V4.136H61.2007V3.136ZM51.8407 3.136H50.8407V17.056H51.8407H52.8407V3.136H51.8407ZM51.8407 17.056V18.056H61.2007V17.056V16.056H51.8407V17.056ZM61.2007 17.056V18.056C61.3345 18.056 61.2148 18.0884 61.0756 17.9491C60.9363 17.8099 60.9687 17.6902 60.9687 17.824H61.9687H62.9687C62.9687 17.4298 62.881 16.9261 62.4898 16.5349C62.0985 16.1436 61.5949 16.056 61.2007 16.056V17.056ZM61.9687 17.824H60.9687C60.9687 17.7191 61.0142 17.6448 61.0555 17.6054C61.0989 17.5639 61.1527 17.544 61.2007 17.544V18.544V19.544C62.1426 19.544 62.9687 18.8017 62.9687 17.824H61.9687ZM61.2007 18.544V17.544H51.8407V18.544V19.544H61.2007V18.544ZM66.4098 18.784V17.784H65.4098V18.784H66.4098ZM76.4418 16.624L75.6844 15.971L75.6784 15.9781L76.4418 16.624ZM74.4738 18.064L74.0931 17.1393L72.1405 17.9433L73.9997 18.9445L74.4738 18.064ZM76.1538 19.264L75.4467 19.9711L75.4529 19.9773L75.4592 19.9834L76.1538 19.264ZM66.4098 3.088V2.088H65.4098V3.088H66.4098ZM66.4098 17.296H65.4098V18.296H66.4098V17.296ZM78.2658 33.184H77.2658C77.2658 33.3178 77.2335 33.1981 77.3727 33.0589C77.512 32.9196 77.6316 32.952 77.4978 32.952V33.952V34.952C77.892 34.952 78.3957 34.8644 78.7869 34.4731C79.1782 34.0819 79.2658 33.5782 79.2658 33.184H78.2658ZM77.4978 33.952V32.952C77.6027 32.952 77.677 32.9976 77.7165 33.0388C77.758 33.0822 77.7778 33.136 77.7778 33.184H76.7778H75.7778C75.7778 34.1259 76.5201 34.952 77.4978 34.952V33.952ZM76.7778 33.184H77.7778V24.976H76.7778H75.7778V33.184H76.7778ZM76.7778 24.976H77.7778C77.7778 22.8038 77.1733 20.9734 75.907 19.685C74.6384 18.3943 72.8397 17.784 70.7298 17.784V18.784V19.784C72.4599 19.784 73.6852 20.2777 74.4806 21.087C75.2784 21.8986 75.7778 23.1642 75.7778 24.976H76.7778ZM70.7298 18.784V17.784H66.4098V18.784V19.784H70.7298V18.784ZM66.4098 18.784H65.4098V33.184H66.4098H67.4098V18.784H66.4098ZM66.4098 33.184H65.4098C65.4098 33.3178 65.3775 33.1981 65.5167 33.0589C65.656 32.9196 65.7756 32.952 65.6418 32.952V33.952V34.952C66.036 34.952 66.5397 34.8644 66.9309 34.4731C67.3222 34.0819 67.4098 33.5782 67.4098 33.184H66.4098ZM65.6418 33.952V32.952C65.7467 32.952 65.821 32.9976 65.8605 33.0388C65.902 33.0822 65.9218 33.136 65.9218 33.184H64.9218H63.9218C63.9218 34.1259 64.6641 34.952 65.6418 34.952V33.952ZM64.9218 33.184H65.9218V2.32H64.9218H63.9218V33.184H64.9218ZM64.9218 2.32H65.9218C65.9218 2.42225 65.8789 2.48915 65.8449 2.52311C65.811 2.55707 65.7441 2.6 65.6418 2.6V1.6V0.599999C64.7055 0.599999 63.9218 1.38371 63.9218 2.32H64.9218ZM65.6418 1.6V2.6H70.7298V1.6V0.599999H65.6418V1.6ZM70.7298 1.6V2.6C73.1355 2.6 74.6783 3.21521 75.649 4.31855C76.6449 5.45041 77.2178 7.29417 77.2178 10.144H78.2178H79.2178C79.2178 7.08983 78.6148 4.66159 77.1506 2.99744C75.6613 1.30479 73.4601 0.599999 70.7298 0.599999V1.6ZM78.2178 10.144H77.2178C77.2178 12.9756 76.6546 14.8456 75.6844 15.9711L76.4418 16.624L77.1992 17.2769C78.629 15.6183 79.2178 13.1684 79.2178 10.144H78.2178ZM76.4418 16.624L75.6784 15.9781C75.2466 16.4884 74.7511 16.8684 74.0931 17.1393L74.4738 18.064L74.8546 18.9887C75.8285 18.5876 76.581 18.0076 77.2052 17.2699L76.4418 16.624ZM74.4738 18.064L73.9997 18.9445C74.5799 19.2569 75.0146 19.539 75.4467 19.9711L76.1538 19.264L76.8609 18.5569C76.237 17.933 75.6157 17.5431 74.9479 17.1835L74.4738 18.064ZM76.1538 19.264L75.4592 19.9834C76.6106 21.0951 77.2658 22.7288 77.2658 24.976H78.2658H79.2658C79.2658 22.3272 78.481 20.1209 76.8484 18.5446L76.1538 19.264ZM78.2658 24.976H77.2658V33.184H78.2658H79.2658V24.976H78.2658ZM66.4098 3.088H65.4098V17.296H66.4098H67.4098V3.088H66.4098ZM66.4098 17.296V18.296H70.7298V17.296V16.296H66.4098V17.296ZM70.7298 17.296V18.296C72.9576 18.296 74.7977 17.7704 76.0347 16.3105C77.235 14.8941 77.6818 12.8062 77.6818 10.144H76.6818H75.6818C75.6818 12.6658 75.2407 14.1539 74.5089 15.0175C73.8139 15.8376 72.678 16.296 70.7298 16.296V17.296ZM76.6818 10.144H77.6818C77.6818 7.57457 77.2457 5.51418 76.0547 4.09986C74.8273 2.64231 72.9907 2.088 70.7298 2.088V3.088V4.088C72.693 4.088 73.8323 4.56568 74.5249 5.38813C75.2539 6.25381 75.6818 7.72143 75.6818 10.144H76.6818ZM70.7298 3.088V2.088H66.4098V3.088V4.088H70.7298V3.088Z" fill="#10B981" mask="url(#path-1-outside-1_1_3)"/>
</svg>
